<svg id="Capa_1" enable-background="new 0 0 512 512" height="512" viewBox="0 0 512 512" width="512" xmlns="http://www.w3.org/2000/svg"><g><g><path d="m226 512h-180c-8.284 0-15-6.716-15-15v-242c0-28.797 17.746-50.429 33.403-69.514 13.678-16.672 26.597-32.42 26.597-50.486v-120c0-8.284 6.716-15 15-15h60c8.284 0 15 6.716 15 15v120c0 18.066 12.919 33.814 26.597 50.486 15.657 19.085 33.403 40.717 33.403 69.514v242c0 8.284-6.716 15-15 15z"/></g><g><path d="m466 512h-180c-8.284 0-15-6.716-15-15v-242c0-28.797 17.746-50.429 33.403-69.514 13.678-16.672 26.597-32.42 26.597-50.486v-120c0-8.284 6.716-15 15-15h60c8.284 0 15 6.716 15 15v120c0 18.066 12.919 33.814 26.597 50.486 15.657 19.085 33.403 40.717 33.403 69.514v242c0 8.284-6.716 15-15 15z"/></g></g></svg>