<?xml version="1.0"?>
<svg xmlns="http://www.w3.org/2000/svg" id="Solid" viewBox="0 0 512 512" width="512" height="512"><path d="M451.64,436.817,440.8,328.355A89.2,89.2,0,0,0,371.193,250.1l34.881,40.695-12.148,10.412L360,261.626V312H344V261.626l-33.926,39.58-12.148-10.412L332.8,250.1a89.347,89.347,0,0,0-45.6,25.794L272.87,326.077a92.14,92.14,0,0,1,58.261,71.794l5.471,34.643a47.941,47.941,0,0,1-10.921,38.668c-.239.28-.493.544-.739.818H419.8a31.991,31.991,0,0,0,31.84-35.183Z"/><path d="M143.4,432.514l5.471-34.643a92.14,92.14,0,0,1,58.261-71.794L192.308,274.2A8,8,0,0,1,200,264h76.453a105.336,105.336,0,0,1,42.471-26.644L304.308,186.2A8,8,0,0,1,312,176h13.3a135.155,135.155,0,0,0-92.072-54.878l45.085,57.967-12.63,9.822L224,135.316V208H208V135.316l-41.685,53.6-12.63-9.822L198.791,121.1A134.447,134.447,0,0,0,82.122,240.114L60.771,436.542A32,32,0,0,0,92.583,472h62.475c-.246-.274-.5-.538-.739-.818A47.941,47.941,0,0,1,143.4,432.514Z"/><path d="M216,104a149.912,149.912,0,0,1,29.332,2.905L264.682,40H165.764l18.167,67.416A151.653,151.653,0,0,1,216,104Z"/><path d="M334.46,233.487a104.081,104.081,0,0,1,35.079,0L381.394,192H322.606Z"/><path d="M315.327,400.367A76.236,76.236,0,0,0,256.906,337.9l29.6,41.446-13.02,9.3L248,352.964V392H232V352.964L206.51,388.65l-13.02-9.3,29.6-41.446a76.236,76.236,0,0,0-58.421,62.463L159.2,435.01A32,32,0,0,0,190.812,472h98.376A32,32,0,0,0,320.8,435.01Z"/><path d="M240,320a92.142,92.142,0,0,1,17.482,1.693L269.394,280H210.606l11.912,41.693A92.142,92.142,0,0,1,240,320Z"/></svg>
