<svg id="Capa_1" enable-background="new 0 0 512 512" height="512" viewBox="0 0 512 512" width="512" xmlns="http://www.w3.org/2000/svg"><g><path d="m135.335 165.071 21.213-21.213 41.603 41.603c10.981 10.981 28.527 11.767 40.445 1.811l13.722-11.462-68.217-68.218c-69.693-69.693-116.367-3.885-140.798 20.546l-4.359 4.36 198.253 198.253 11.462-13.722c9.955-11.918 9.17-29.464-1.811-40.445z"/><path d="m0 93.556v-93.503l31.493.01 53.61 53.61-62.429 62.429z"/><path d="m492.744 439.506 19.256 19.257v53.184h-68.529l-50.241-50.241h-41.7v-41.456l36.22-36.221v-53.643h64.384l40.478 40.478z"/><g><path d="m415.926 285.311h-30c0-39.305-31.978-71.282-71.283-71.282v-30c55.847 0 101.283 45.434 101.283 101.282z"/></g><g><path d="m357.762 295.046h-30c0-18.116-14.738-32.854-32.854-32.854v-30c34.657 0 62.854 28.196 62.854 62.854z"/></g></g></svg>