<?xml version="1.0"?>
<svg xmlns="http://www.w3.org/2000/svg" viewBox="0 0 64 64" width="512" height="512"><g id="Microplastics-Environment-Small-Pollution-Hand"><path d="M21,60H43V47H21Zm2-11h2v2H23Z"/><path d="M43,42a.937.937,0,0,1,.07-.37L45,36.81V17a2,2,0,0,0-4,0v5H39V12a2,2,0,0,0-4,0V22H33V6a2,2,0,0,0-4,0V22H27V11a2.006,2.006,0,0,0-2-2,2.015,2.015,0,0,0-2,2v6.38A4,4,0,0,1,24,20v6.08A6.017,6.017,0,0,1,29,32v1H27V32a4,4,0,0,0-4-4,1,1,0,0,1-1-1V20a2,2,0,0,0-4,0V36.72l2.86,4.77A1,1,0,0,1,21,42v3H43ZM25,35H23V33h2Zm7.707-9.707,2,2-1.414,1.414-2-2Zm-4,12.414-1.414-1.414,2-2,1.414,1.414ZM33,40H31V38h2Zm0-7H31V31h2Zm2.293,4.707-2-2,1.414-1.414,2,2ZM37,32H35V30h2Zm-.707-5.707,2-2,1.414,1.414-2,2ZM40,34H38V32h2Zm1-4H39V28h2Z"/></g></svg>
